<svg width="30" height="35" viewBox="0 0 30 35" fill="none" xmlns="http://www.w3.org/2000/svg">
<path d="M28.4661 11.9256C27.0953 9.77807 24.8107 8.54439 21.795 8.36162C19.0535 8.19547 16.0835 10.0522 14.9413 10.0522C13.799 10.0522 11.0574 8.54439 8.95561 8.54439C4.70627 8.54439 0 11.9256 0 18.8708C-1.60976e-09 21.0183 0.365535 22.983 1.05091 25.1762C1.96475 28.1005 5.57441 35 9.41253 35C11.5601 35 12.9308 33.6292 15.3525 33.6292C17.8689 33.5661 19.2363 35 21.3381 35C25.2219 35 28.4661 28.5574 29.4256 25.6789C24.2624 23.2572 24.5366 18.8708 24.5366 18.5509C24.5366 15.5809 25.7245 13.4791 28.4661 11.9256Z" fill="#181818"/>
<path d="M14.713 8.36162C14.5301 6.30548 15.3982 4.15796 16.6777 2.74151C17.9573 1.32507 20.1046 0 22.0237 0C22.0237 0.913838 22.252 3.10705 20.1046 5.6658C18.6423 7.40833 16.8603 8.49869 14.713 8.36162Z" fill="#181818"/>
</svg>
