<svg width="724" height="356" viewBox="0 0 724 356" fill="none" xmlns="http://www.w3.org/2000/svg">
<path d="M14.5 168.5L0 172.5V356.5H724L722.5 62L713.5 59L701 55.5H688.5L680.5 49.5L672 41.5L660.5 33.5L647 22.5L641 15L632.5 22.5L623.5 28L615.5 22.5L605 28L598.5 22.5L590.5 15L582 8.5H570L557.5 3.5L546 0H524.5L512.5 3.5L503.5 15L487 33.5L472.5 41.5L455.5 52L444.5 46L413.5 66.5L410.5 62L405 60L399.5 62L394.5 64H390H382.5H370.5L368.5 58.5V52L363 46H356L349.5 49.5L343.5 55.5H338L331.5 52L323 55.5L302.5 70.5L285.5 82L264.5 96L246 109.5H235.5L225.5 115H217L203.5 118.5L184 122L170 124.5L156 133L140.5 147L129.5 159.5L118.5 164.5L111 175.5H102L95 172.5L87 168.5L76 164.5H66.5L55 159.5C41.8174 155.113 38.1412 159.636 32 168.5H14.5Z" fill="#181818"/>
</svg>
