<svg width="720" height="405" viewBox="0 0 720 405" fill="none" xmlns="http://www.w3.org/2000/svg">
<path d="M0 111H11.5L21 115.5L35 127H48.5L75.5 136.5L91.5 151H106L125.5 146.5H131.5H145.5L159 151H186.5C220.56 136.516 237.655 124.875 263 95L288 68L293 64V52.5L298 49H304.5H308V44L312.5 40.5H316.5H321L325 32V28L328 24C328.333 21.6667 329.7 16.7 332.5 15.5C335.3 14.3 347 7.66667 352.5 4.5L354.5 2.5L360 0H366.5H373.5L391 15.5L402 24V28C400.667 28.1667 398.8 29.2 402 32C405.2 34.8 409.667 38.8333 411.5 40.5H418L429 44H436H441.5L446.5 49H456.5L465 52.5H470H473.5L480.5 58L483.5 61C482.167 60.6667 480.3 60.8 483.5 64C486.7 67.2 490.5 68 492 68L498.5 71.5C497.833 70.5 497.6 69.1 502 71.5C506.4 73.9 510.5 77.1667 512 78.5H516L521 82.5H528.5C529.167 81.5 530.9 80.1 532.5 82.5C534.5 85.5 536.5 95 540 95C542.8 95 552.167 100.667 556.5 103.5L563 107H569.5H582.5L586.5 111H590.5H594.5L601.5 115.5H608.5H616.5H620V118.5H623L625.5 125.5V130.5C626 128.5 627.6 125.7 630 130.5C633 136.5 635.5 136.5 638.5 136.5C641.5 136.5 638.5 132 645 136.5C658.5 141.5 660 141 663.5 140.5C666.3 140.1 670.667 137.667 672.5 136.5H678H682H685.5L687 138.5C687.167 139.167 688.3 140.5 691.5 140.5C695.5 140.5 698 142.5 700.5 143L700.841 143.068C703.884 143.679 718.747 146.659 720.5 146.5V406H0V111Z" fill="#E9DEDC"/>
</svg>
